<?xml version="1.0" encoding="UTF-8"?>
<svg id="Layer_1" data-name="Layer 1" xmlns="http://www.w3.org/2000/svg" viewBox="0 0 442.96 387.84">
  <defs>
    <style>
      .cls-1 {
        fill: #231f20;
        font-family: HelveticaNeue-Bold, 'Helvetica Neue';
        font-size: 24px;
        font-weight: 700;
      }

      .cls-2 {
        fill: #fff;
      }

      .cls-3 {
        letter-spacing: -.02em;
      }
    </style>
  </defs>
  <g>
    <g>
      <path d="M226.32,14.65c8.96-1.27,12.54,9.01,14.28,16.09,1.64,6.2,2.76,12.35,3.63,18.16,1.21,7.91,2.23,16.04,5.11,23.59,1.46,3.94,3.33,7.74,4.7,11.71,1.95,5.36,2.5,11.1,3.62,16.75,2.11,8.55,2.74,18.04-3.9,24.8-2.78,3.04-7,3.48-10.02.93-3.87-3.06-5.85-8.87-7.39-14.43-2.01-6.08-1.92-22.33-9.68-23.27-4.88,1.14-4.54,11.97-6.04,16.58-.99,3.94-2.49,7.8-4.03,11.57-2.23,5.31-4.2,10.59-8.46,13.27-3.7,2.43-8.92,2.26-12.48-.3-9.27-7.37,3.1-19.59,4.59-28.24,1.57-6.25.82-13.04,2.71-19.36,1.82-6.47,4.9-12.61,6.87-19.05,2.67-8.41,4.2-16.78,5.16-25.42,1-8.24,1.53-20.96,11.15-23.37l.17-.03ZM222.88,62.26c1.43.87,3.82.21,5.34-.61,3.86-1.97,3.46-6.86,3.08-10.57-.61-4.07-.72-9.23-4.17-9.94-3.84.45-4.24,5.27-4.84,8.6-.17,3.46-2,10.22.49,12.45l.1.07Z"/>
      <path d="M279.73,27.12c7.73,10.09,15.71,14.08,25.1,3.45,5.58-6.31,8.48-14.45,14.95-19.9,2.61-2.26,5.81-4.13,9.25-4.58,5.12-.86,9.37,2.56,8.14,7.95-.87,4.36-3.84,8.97-6.01,13.16-3.88,7.87-8.41,15.03-14.54,21.54-6.64,8.29-16.81,15.67-18.54,26.75-1.6,16.79,3.32,53.15-17.99,58.33-8.2,1.67-8.43-8.84-8.51-15.13.23-8.74,2.97-17.04,2.52-25.79-.09-4.01-.48-8-.36-12.01.1-6.83,2-13.58.75-20.34-1.23-6.26-3.66-12.49-6.77-18.09-2.68-4.66-6.03-8.01-8.55-12.83-2.17-4.35-4.42-9.78-2.94-14.6,1.01-2.97,4.28-4.39,7.24-4.01,6.54,1.05,11.67,11.11,16.13,15.95l.12.15Z"/>
    </g>
    <g>
      <path d="M186.85.31c12-2.82,15.37,14.06,16.63,22.93.83,5.95.42,10.35-1.01,16.46-2.38,9.16-4.48,19.24-11.51,25.98-4.99,4.87-11.98,10.29-18.35,14.06-8.39,5.1-22.35,8.93-24.47,19.74-.47,11.45,14.3,9.43,22.06,11.48,9.59,2.22,9.78,10.65.99,14.53-6.07,2.87-12.99,1.04-19.56.78-6.74-.56-13.99,1.09-20.2-.51-9.93-2.83-11.57-10.7-9.9-19.96.8-8.94,3.46-16.1,9.52-22.88,17.38-20.75,38.72-11.73,45.46-46.11.69-3.77,1.05-7.63,1.19-11.49.22-4.39-.19-8.94.68-12.98,1.09-4.91,3.58-10.09,8.33-11.97l.15-.05Z"/>
      <path class="cls-2" d="M222.78,62.2c-2.49-2.23-.66-8.98-.49-12.45.6-3.33,1.01-8.15,4.84-8.6,3.45.7,3.56,5.88,4.17,9.94.38,3.71.77,8.6-3.08,10.57-1.52.82-3.91,1.47-5.34.61l-.1-.07Z"/>
    </g>
    <g>
      <g>
        <path d="M110.15,150.96c4-6.62,13.54-8.09,19.89-3.85,9.79,6.16,10.24,17.91,9.23,28.16-.89,10.65-2.48,22.42-4.74,31.44-1.27,4.86-3.29,9.04-3.92,14.18-1.63,11.34,4.79,19.41,16.47,20.48,5.67.76,12.18-.73,17.14,2.26,5.51,3.84,1.32,10.61-3.95,12.6-2.21.98-4.78,1.6-7.5,2.03-7.89,1.19-16.02.71-23.9,1.74-11.07,1.61-18.98,2.38-26.16-7.51-5.17-6.33-3.26-14.38-.91-21.6,2.17-6.84,4.4-13.62,5.66-20.68,2.44-12.84,2.03-25.3.93-38.54-.44-6.84-2.22-14.49,1.67-20.56l.1-.16Z"/>
        <path d="M166.17,206.81c-1.39,1.83-.76,4.3.54,6.05,3.85,5.21,12.23,6.12,18.15,10.56,3.9,2.7,6.86,7.66,5.32,12.42-2.51,7.41-11.4,4.01-17,2.86-2.94-.62-5.9-.96-8.89-1.29-34.1-1.58-18.34-36.05-14.66-58.87,1.28-6.06.05-12.03.04-18.17-.07-9.23,8.34-11.72,16.04-12.38,5.81-.62,11.77-.99,17.57-1.22,6.63-.03,14.68-.9,19.89,3.94,4.31,4.36,1.03,10.27-4.11,11.88-8.05,3.15-17.92.77-24.17,5.4-4.02,2.89-4.16,8.49-1.93,12.58,2.72,6.02,10.43,11.7,6.49,18.4-2.82,4.46-9.91,4.11-13.18,7.73l-.08.11Z"/>
      </g>
      <g>
        <path d="M268.96,175.39c1.09,3.67,5.21,6.85,7.4,10.25,5.21,7.24,9.8,15.1,12.65,22.93,3.34,9.67,5.14,22.76.91,32.32-4.7,8.63-14.89,15.82-24.26,17.57-6.81,1.09-13.46-.77-19.78-3.06-20.35-6.35-17.9-32.4,3.46-23.58,6.51,3.17,15.08,6.35,21.75,1.78,8.3-6.75,1.22-21.85-1.89-30.72-2.21-6.92-5.55-11.79-12.25-15.04-9.26-4.57-18.11-14.26-10.52-24.28,2.94-4.03,7.06-7.42,11.81-9,9.82-3.03,34.31-.88,41.54,6.8,5.03,5.22.66,11.64-5.79,12.09-5.79.65-11.31-1.78-17.04-2.03-2.79-.07-8.18.12-8.01,3.86l.02.11Z"/>
        <path d="M212.12,257.26c-4.7-4.15-2.59-11.65-3.86-17.22-.79-5.19-3.54-10.06-3.81-14.99-.17-2.42.19-4.87.62-7.29,1.97-7.73.82-15.78.91-23.48.28-7.06,2.3-14.51,3.56-21.41,1.49-6.77,1.33-14.52,5.58-20.29,5.24-6.72,13.87-2.95,16.3,4.2,1.92,5.02,1.39,10.89.82,16.25-.63,7.35-2.96,14.68-3.53,21.65-.39,5.01.29,10.01-.12,15.03-.67,8.22-3.09,16.36-1.94,24.52,1,6.71.98,14.26-3.2,19.92-2.83,3.89-7.5,5.83-11.22,3.2l-.13-.09Z"/>
      </g>
    </g>
    <g>
      <path d="M86.85,121.53c-3.14-3.15-4.26-8.87-2.93-13.38,1.7-6.15,7.74-9.65,10.68-15.11,3.82-6.88,4.53-15.71,5.69-23.7.7-5.28,1.62-10.47,2.81-15.66,2.01-8.56,4.15-17.1,5.23-25.85.4-2.62.9-5.21,1.89-7.66,3.12-7.52,11.18-13.21,18.61-16.76,11.47-4.77,27.56-2.12,32.45,10.6,2.92,7.05,6.5,15.01,5.11,22.79-2.24,9.9-9.85,21.8-19.87,25.98-6,2.63-13.74,3.51-18.84,7.71-5.26,4.42-6.99,11.69-9.42,17.89-2.07,5.85-4.82,11.11-7.17,16.75-2.21,5.3-4.14,11.04-8.39,15.1-4.02,4.14-11.46,5.65-15.72,1.41l-.12-.12ZM132.7,31.55c-2.96,1.79-4.63,6.69-6,9.98-1.57,3.86-.61,7.89,4.18,7.01,3.76-.63,6.74-3.31,8.48-6.75,1.79-3.4,2.67-7.04-.16-9.31-1.68-1.37-4.43-2.02-6.34-1.01l-.15.08Z"/>
      <path class="cls-2" d="M132.85,31.47c1.91-1.01,4.66-.36,6.34,1.01,2.83,2.27,1.96,5.91.16,9.31-1.92,3.81-5.52,6.83-9.83,6.84-3.91.02-4.07-4.13-2.83-7.11,1.37-3.29,3.05-8.19,6-9.98l.15-.08Z"/>
    </g>
  </g>
  <text class="cls-1" transform="translate(10.39 331.64)"><tspan x="0" y="0">The first edition of the kit and hat a</tspan><tspan class="cls-3" x="399.49" y="0">r</tspan><tspan x="408.4" y="0">e </tspan><tspan x="59.07" y="28.8">coming soon. Stay tuned...</tspan></text>
</svg>