<?xml version="1.0" encoding="UTF-8"?>
<svg id="Layer_1" data-name="Layer 1" xmlns="http://www.w3.org/2000/svg" viewBox="0 0 863.82 420.65">
  <defs>
    <style>
      .cls-1 {
        font-family: HelveticaNeue-Medium, 'Helvetica Neue';
        font-size: 367.7px;
        font-weight: 500;
      }

      .cls-1, .cls-2 {
        isolation: isolate;
      }

      .cls-3 {
        fill: #2da9e1;
      }
    </style>
  </defs>
  <g class="cls-2">
    <g class="cls-2">
      <g class="cls-2">
        <g class="cls-2">
          <g class="cls-2">
            <g class="cls-2">
              <text class="cls-1" transform="translate(0 315.12)"><tspan x="0" y="0">leis</tspan></text>
            </g>
          </g>
        </g>
      </g>
    </g>
  </g>
  <g>
    <path class="cls-3" d="M742.67,201.47c-1.1-1.23-2.43-2.23-4-3-1.57-.77-3.32-1.15-5.25-1.15s-3.82.35-5.45,1.05c-1.63.7-3.03,1.67-4.2,2.9-1.17,1.23-2.1,2.68-2.8,4.35-.7,1.67-1.08,3.47-1.15,5.4h26.6c-.13-1.8-.52-3.53-1.15-5.2-.63-1.67-1.5-3.12-2.6-4.35Z"/>
    <path class="cls-3" d="M725.32,67.22c-76.49,0-138.5,62.01-138.5,138.5s62.01,138.5,138.5,138.5,138.5-62.01,138.5-138.5-62.01-138.5-138.5-138.5ZM665.52,241.42h-11.2v-7.2h-.2c-1.4,2.6-3.48,4.68-6.25,6.25-2.77,1.57-5.58,2.35-8.45,2.35-6.8,0-11.72-1.68-14.75-5.05-3.03-3.37-4.55-8.45-4.55-15.25v-32.8h11.4v31.7c0,4.53.87,7.73,2.6,9.6,1.73,1.87,4.17,2.8,7.3,2.8,2.4,0,4.4-.37,6-1.1,1.6-.73,2.9-1.72,3.9-2.95,1-1.23,1.71-2.71,2.15-4.45.43-1.73.65-3.6.65-5.6v-30h11.4v51.7ZM707.82,199.62c-.8-.13-1.62-.25-2.45-.35-.83-.1-1.65-.15-2.45-.15-1.93,0-3.75.38-5.45,1.15-1.7.77-3.19,1.9-4.45,3.4-1.27,1.5-2.27,3.35-3,5.55-.73,2.2-1.1,4.73-1.1,7.6v24.6h-11.4v-51.7h10.7v10h.2c.33-1.4.98-2.77,1.95-4.1.97-1.33,2.13-2.55,3.5-3.65,1.37-1.1,2.88-1.98,4.55-2.65,1.67-.67,3.37-1,5.1-1,1.33,0,2.25.03,2.75.1.5.07,1.02.13,1.55.2v11ZM757.82,218.52h-38c0,2,.28,3.93.85,5.8.57,1.87,1.42,3.5,2.55,4.9,1.13,1.4,2.57,2.52,4.3,3.35,1.73.83,3.8,1.25,6.2,1.25,3.33,0,6.02-.72,8.05-2.15,2.03-1.43,3.55-3.58,4.55-6.45h10.8c-.6,2.8-1.63,5.3-3.1,7.5-1.47,2.2-3.23,4.05-5.3,5.55s-4.38,2.63-6.95,3.4c-2.57.77-5.25,1.15-8.05,1.15-4.07,0-7.67-.67-10.8-2-3.13-1.33-5.78-3.2-7.95-5.6-2.17-2.4-3.8-5.27-4.9-8.6-1.1-3.33-1.65-7-1.65-11,0-3.67.58-7.15,1.75-10.45,1.17-3.3,2.83-6.2,5-8.7,2.17-2.5,4.78-4.48,7.85-5.95,3.07-1.46,6.53-2.2,10.4-2.2,4.07,0,7.72.85,10.95,2.55,3.23,1.7,5.92,3.95,8.05,6.75,2.13,2.8,3.68,6.02,4.65,9.65.97,3.63,1.22,7.38.75,11.25ZM778.22,241.42h-11.4v-71.4h11.4v71.4ZM816.02,244.22c-.93,2.33-1.85,4.57-2.75,6.7-.9,2.13-2,4.02-3.3,5.65-1.3,1.63-2.92,2.93-4.85,3.9-1.93.97-4.4,1.45-7.4,1.45-2.67,0-5.3-.2-7.9-.6v-9.6c.93.13,1.83.28,2.7.45.87.17,1.77.25,2.7.25,1.33,0,2.43-.17,3.3-.5.87-.33,1.58-.82,2.15-1.45.57-.63,1.05-1.38,1.45-2.25.4-.87.77-1.87,1.1-3l1.3-4-19.6-51.5h12.5l13.5,38.6h.2l13.1-38.6h11.9l-20.1,54.5Z"/>
  </g>
</svg>