<svg id="Layer_1" xmlns="http://www.w3.org/2000/svg" viewBox="0 0 531.64 429.34">
  <defs>
    <style>
      .cls-1 {
        fill: #010101;
      }

      .cls-2 {
        fill: #231f20;
        font-family: HelveticaNeue, 'Helvetica Neue';
        font-size: 77.57px;
      }

      .cls-3 {
        letter-spacing: -.02em;
      }
    </style>
  </defs>
  <text class="cls-2" transform="translate(0 66.48)"><tspan x="0" y="0">P</tspan><tspan class="cls-3" x="50.26" y="0">r</tspan><tspan x="74.7" y="0">oduct Image </tspan><tspan x="0" y="93.08">Coming Soon</tspan></text>
  <g>
    <path class="cls-1" d="M250.91,337.98c-.72,0-1.44-.28-1.99-.82-1.1-1.1-1.1-2.87,0-3.97l18.13-18.13c1.1-1.1,2.87-1.1,3.97,0s1.1,2.87,0,3.97l-18.13,18.13c-.55.55-1.27.82-1.99.82Z"></path>
    <path class="cls-1" d="M280.27,328.92c-.72,0-1.44-.28-1.99-.82-1.1-1.1-1.1-2.87,0-3.97l8.53-8.53c1.1-1.1,2.87-1.1,3.97,0s1.1,2.87,0,3.97l-8.53,8.53c-.55.55-1.27.82-1.99.82Z"></path>
    <path class="cls-1" d="M251.44,357.76c-.72,0-1.44-.28-1.99-.82-1.1-1.1-1.1-2.87,0-3.97l20.9-20.9c1.1-1.1,2.87-1.1,3.97,0s1.1,2.87,0,3.97l-20.9,20.9c-.55.55-1.27.82-1.99.82Z"></path>
    <path class="cls-1" d="M275.85,406.42c-34.92,0-63.34-28.41-63.34-63.33s28.41-63.34,63.34-63.34,63.33,28.41,63.33,63.34-28.41,63.33-63.33,63.33ZM275.85,285.37c-31.83,0-57.72,25.89-57.72,57.72s25.89,57.71,57.72,57.71,57.71-25.89,57.71-57.71-25.89-57.72-57.71-57.72Z"></path>
    <path class="cls-1" d="M391.11,256.84h-60.04v-13.71c0-6.4-5.21-11.61-11.61-11.61h-87.23c-6.4,0-11.61,5.21-11.61,11.61v13.71h-60.04c-6.17,0-11.19,5.02-11.19,11.19v150.12c0,6.17,5.02,11.19,11.19,11.19h230.52c6.17,0,11.19-5.02,11.19-11.19v-150.12c0-6.17-5.02-11.19-11.19-11.19ZM226.25,243.13c0-3.3,2.69-5.99,5.99-5.99h87.23c3.3,0,5.99,2.69,5.99,5.99v13.71h-99.2v-13.71ZM396.68,418.15c0,3.07-2.5,5.57-5.57,5.57h-230.52c-3.07,0-5.57-2.5-5.57-5.57v-150.12c0-3.07,2.5-5.57,5.57-5.57h230.52c3.07,0,5.57,2.5,5.57,5.57v150.12h0Z"></path>
    <path class="cls-1" d="M368.64,303.75c-7.3,0-13.24-5.94-13.24-13.24s5.94-13.24,13.24-13.24,13.24,5.94,13.24,13.24-5.94,13.24-13.24,13.24ZM368.64,282.89c-4.2,0-7.62,3.42-7.62,7.62s3.42,7.62,7.62,7.62,7.62-3.42,7.62-7.62-3.41-7.62-7.62-7.62Z"></path>
    <path class="cls-1" d="M275.85,388.05c-24.79,0-44.96-20.17-44.96-44.96s20.17-44.96,44.96-44.96,44.96,20.17,44.96,44.96-20.17,44.96-44.96,44.96ZM275.85,303.75c-21.69,0-39.34,17.65-39.34,39.34s17.65,39.34,39.34,39.34,39.34-17.65,39.34-39.34-17.65-39.34-39.34-39.34Z"></path>
    <path class="cls-1" d="M189.77,303.75h-11c-7.3,0-13.24-5.94-13.24-13.24s5.94-13.24,13.24-13.24h11c7.3,0,13.24,5.94,13.24,13.24s-5.94,13.24-13.24,13.24ZM178.77,282.89c-4.2,0-7.62,3.42-7.62,7.62s3.42,7.62,7.62,7.62h11c4.2,0,7.62-3.42,7.62-7.62s-3.42-7.62-7.62-7.62h-11Z"></path>
  </g>
</svg>